<svg width="29" height="28" viewBox="0 0 29 28" fill="none" xmlns="http://www.w3.org/2000/svg">
<path d="M20.6446 0C20.011 0.0351997 19.3774 0.105599 18.779 0.316797C17.8286 0.668794 16.9134 1.19679 16.1391 1.97118C15.9162 2.11243 15.728 2.30196 15.5883 2.52575C15.4487 2.74955 15.3611 3.00188 15.3321 3.26409C15.303 3.5263 15.3333 3.79168 15.4207 4.0406C15.5081 4.28952 15.6503 4.51561 15.8369 4.70216C16.0234 4.8887 16.2495 5.03092 16.4984 5.1183C16.7473 5.20568 17.0127 5.23598 17.2749 5.20697C17.5371 5.17795 17.7895 5.09036 18.0133 4.95068C18.2371 4.81099 18.4266 4.62278 18.5678 4.39996C18.955 4.01277 19.4126 3.80157 19.9054 3.62557C21.1374 3.20317 22.651 3.37917 23.6366 4.39996C25.0094 5.77275 25.0094 8.06073 23.6366 9.46872L18.3566 14.7487C16.8078 16.2975 15.5407 16.4383 14.6255 16.4031C13.7103 16.3679 13.1823 15.9455 13.1823 15.9455C12.9789 15.8299 12.7547 15.7555 12.5226 15.7266C12.2905 15.6977 12.0549 15.7147 11.8294 15.7768C11.6038 15.8389 11.3928 15.9449 11.2082 16.0885C11.0236 16.2322 10.8691 16.4109 10.7535 16.6143C10.6379 16.8176 10.5636 17.0418 10.5346 17.2739C10.5057 17.5061 10.5228 17.7416 10.5849 17.9672C10.647 18.1927 10.7529 18.4038 10.8966 18.5884C11.0403 18.773 11.2189 18.9275 11.4223 19.043C11.4223 19.043 12.6191 19.8174 14.3791 19.923C16.1391 20.0286 18.603 19.3598 20.7502 17.1775L26.0302 11.8975C28.7757 9.15192 28.7757 4.71676 26.0302 2.00638C25.0446 1.02079 23.883 0.422396 22.6158 0.140799C21.9822 0 21.2782 0 20.6446 0.0351997V0ZM13.6047 8.13113C11.8447 8.06073 9.41591 8.65913 7.33913 10.7711L2.05918 16.0511C-0.686394 18.7966 -0.686394 23.2318 2.05918 25.9422C4.03036 27.9134 6.84634 28.4766 9.31032 27.5966C10.2607 27.2446 11.1759 26.7166 11.9503 25.9422C12.1731 25.8009 12.3613 25.6114 12.501 25.3876C12.6407 25.1638 12.7283 24.9115 12.7573 24.6493C12.7863 24.3871 12.756 24.1217 12.6686 23.8728C12.5813 23.6238 12.439 23.3977 12.2525 23.2112C12.0659 23.0247 11.8399 22.8824 11.5909 22.7951C11.342 22.7077 11.0766 22.6774 10.8144 22.7064C10.5522 22.7354 10.2999 22.823 10.0761 22.9627C9.85229 23.1024 9.66276 23.2906 9.52151 23.5134C9.13432 23.9006 8.67672 24.1118 8.18393 24.2878C6.95194 24.7102 5.43835 24.5342 4.45276 23.5134C3.07997 22.1406 3.07997 19.8526 4.45276 18.4446L9.73271 13.1647C11.1407 11.7567 12.3727 11.5807 13.3583 11.6159C14.3439 11.6511 15.0127 11.9327 15.0127 11.9327C15.2189 12.0874 15.4566 12.1949 15.7089 12.2475C15.9613 12.3002 16.2221 12.2968 16.473 12.2376C16.7239 12.1784 16.9587 12.0648 17.1609 11.9048C17.363 11.7448 17.5275 11.5424 17.6428 11.3118C17.7581 11.0812 17.8213 10.8281 17.828 10.5704C17.8347 10.3127 17.7847 10.0567 17.6816 9.82046C17.5784 9.58421 17.4247 9.3735 17.2311 9.20323C17.0375 9.03297 16.8089 8.9073 16.5615 8.83512C16.5615 8.83512 15.3647 8.13113 13.6047 8.06073V8.13113Z" fill="#6D5A5A"/>
</svg>
